<?xml version="1.0" standalone="no"?>
<!DOCTYPE svg PUBLIC "-//W3C//DTD SVG 20010904//EN"
 "http://www.w3.org/TR/2001/REC-SVG-20010904/DTD/svg10.dtd">
<svg version="1.0" xmlns="http://www.w3.org/2000/svg"
 width="320.000000pt" height="320.000000pt" viewBox="0 0 320.000000 320.000000"
 preserveAspectRatio="xMidYMid meet">
<metadata>
Created by potrace 1.15, written by Peter Selinger 2001-2017
</metadata>
<g transform="translate(0.000000,320.000000) scale(0.100000,-0.100000)"
fill="#000000" stroke="none">
<path d="M1380 3180 c-162 -14 -369 -68 -423 -110 -26 -20 -53 -25 -81 -14
-11 4 -16 19 -16 46 0 45 -23 49 -28 5 -3 -25 -7 -27 -45 -27 -58 0 -87 -22
-87 -65 0 -82 97 -96 132 -19 12 25 24 29 46 16 10 -7 8 -16 -5 -43 -14 -25
-18 -58 -18 -129 0 -103 9 -129 86 -249 29 -47 34 -63 34 -116 0 -41 6 -70 17
-87 10 -15 26 -58 36 -97 l19 -71 -523 0 -524 0 0 -65 0 -65 1595 0 1595 0 0
65 0 65 -608 0 -608 0 -26 28 c-75 77 -57 171 58 310 53 65 58 78 56 137 -2
30 -2 30 9 5 16 -37 5 -82 -35 -142 -20 -29 -32 -54 -27 -56 22 -7 202 62 274
105 42 26 77 50 77 53 0 4 -27 14 -60 23 -33 10 -60 21 -60 26 0 6 13 6 33 0
34 -10 207 -25 207 -18 0 2 4 31 10 63 10 64 6 83 -16 65 -25 -21 -85 -1 -127
43 -35 37 -40 39 -69 29 -17 -6 -40 -11 -52 -10 -14 0 -9 5 17 14 21 8 50 24
65 35 38 30 82 98 82 128 0 21 -3 23 -22 18 -13 -4 -60 -17 -106 -28 l-83 -22
-56 28 c-144 70 -298 111 -479 126 -129 11 -138 11 -264 0z m288 -153 c3 -40
-2 -55 -23 -83 -15 -20 -42 -43 -61 -51 -24 -12 -34 -23 -34 -40 0 -27 0 -27
36 -8 38 20 50 19 74 -5 16 -16 20 -33 20 -90 0 -74 8 -84 42 -53 17 15 18 15
18 -5 0 -26 -35 -51 -61 -45 -31 9 -50 47 -56 113 -3 33 -9 63 -13 65 -4 3
-19 -5 -34 -16 -20 -15 -26 -29 -26 -57 0 -50 -29 -107 -55 -107 -30 0 -30 36
-1 94 15 29 26 67 26 91 0 36 -3 40 -24 40 -37 0 -41 17 -6 25 22 5 30 12 30
29 0 41 49 123 83 140 50 25 62 18 65 -37z m-236 29 c83 -1 87 -2 82 -21 -10
-30 -23 -35 -91 -35 -72 0 -64 14 -82 -145 -7 -58 -20 -117 -31 -141 -11 -22
-20 -54 -20 -71 0 -23 -13 -46 -45 -84 -25 -29 -42 -56 -38 -60 16 -15 194
-29 366 -29 l177 0 0 30 c0 17 -9 49 -21 71 -11 23 -16 38 -10 34 26 -16 53
-89 48 -128 -4 -30 1 -54 22 -101 16 -33 35 -83 44 -109 l15 -48 -31 3 c-23 2
-38 13 -55 38 -21 31 -23 42 -18 96 9 86 4 94 -55 94 -42 0 -51 -3 -60 -24 -9
-19 -6 -32 15 -74 14 -28 26 -61 26 -72 0 -12 5 -30 10 -41 10 -18 6 -19 -169
-19 l-180 0 -25 33 c-32 41 -34 94 -6 154 l19 43 -22 4 c-75 16 -122 24 -125
22 -11 -12 -2 -99 15 -141 11 -27 25 -65 31 -82 10 -32 9 -33 -19 -33 -43 0
-89 67 -89 129 0 60 37 137 93 198 70 76 84 113 43 113 -31 0 -56 10 -56 21 0
5 9 9 19 9 36 0 61 46 61 114 0 54 18 152 35 197 5 13 -3 19 -37 27 -62 15
-112 2 -113 -30 0 -5 -3 -8 -7 -8 -5 0 -12 0 -18 0 -20 0 -9 39 18 60 25 21
33 22 112 14 47 -4 124 -8 172 -8z m492 -227 c54 -43 16 -124 -48 -100 -25 10
-38 51 -16 51 6 0 10 -7 10 -16 0 -9 7 -14 18 -12 22 4 22 38 0 52 -14 8 -22
6 -40 -11 -31 -31 -30 -89 1 -114 31 -26 54 -24 90 7 l31 26 0 -26 c0 -78
-147 -70 -185 10 -26 55 -2 113 60 140 41 18 48 17 79 -7z"/>
<path d="M958 1931 c-112 -37 -191 -109 -229 -210 -28 -74 -23 -193 10 -262
71 -149 240 -230 421 -202 373 58 438 527 92 667 -70 28 -220 32 -294 7z m167
-141 c41 -16 55 -64 55 -189 0 -113 -7 -146 -35 -174 -22 -23 -87 -22 -108 1
-25 28 -40 118 -34 208 5 92 21 133 57 151 30 15 32 16 65 3z"/>
<path d="M1840 1936 c-216 -63 -320 -279 -232 -480 96 -216 437 -275 623 -108
130 116 152 304 53 449 -38 56 -82 90 -159 124 -62 27 -215 36 -285 15z m153
-147 c43 -20 52 -51 52 -190 0 -114 -2 -130 -21 -156 -17 -23 -29 -28 -64 -28
-64 0 -81 28 -88 143 -7 124 3 179 38 214 31 31 46 34 83 17z"/>
<path d="M0 1860 c0 -79 0 -80 25 -80 l25 0 0 -180 0 -180 -25 0 c-25 0 -25
-1 -25 -80 l0 -80 195 0 195 0 0 80 0 80 -40 0 -40 0 0 55 0 55 60 0 60 0 0
70 0 70 -60 0 -60 0 0 55 0 55 80 0 80 0 0 -30 0 -30 90 0 90 0 0 110 0 110
-325 0 -325 0 0 -80z"/>
<path d="M2430 1860 l0 -80 30 0 30 0 -2 -177 -3 -178 -27 -3 c-28 -3 -28 -3
-28 -84 l0 -80 258 4 c233 4 263 6 317 26 74 27 121 65 160 127 28 45 30 55
33 167 3 112 2 123 -23 173 -47 97 -143 157 -276 175 -41 5 -163 10 -271 10
l-198 0 0 -80z m425 -94 c52 -22 70 -65 70 -166 0 -100 -16 -139 -69 -164 -19
-9 -50 -16 -70 -16 l-36 0 0 180 0 180 35 0 c20 0 51 -6 70 -14z"/>
<path d="M839 1129 c-112 -17 -179 -93 -179 -204 0 -129 88 -208 233 -207 91
0 151 30 191 95 42 69 46 131 12 202 -44 89 -139 131 -257 114z m91 -108 c5
-11 10 -54 10 -96 0 -91 -10 -115 -49 -115 -45 0 -56 23 -56 115 0 55 5 87 14
98 19 23 68 22 81 -2z"/>
<path d="M1882 1129 c-93 -17 -158 -85 -168 -174 -17 -141 73 -236 224 -238
84 -1 130 14 170 56 37 39 52 75 52 128 l0 39 -90 0 -90 0 0 -40 c0 -33 3 -40
20 -40 22 0 26 -20 8 -38 -19 -19 -76 -14 -98 8 -29 29 -29 146 1 184 27 35
76 35 117 1 22 -19 41 -25 76 -25 l46 0 0 70 0 70 -50 0 c-38 0 -50 -4 -50
-15 0 -14 -3 -14 -27 -2 -39 20 -90 25 -141 16z"/>
<path d="M5 925 l0 -205 63 0 62 0 0 41 c0 26 -6 46 -15 53 -13 9 -15 32 -13
121 l3 110 60 -160 c59 -156 61 -160 91 -163 l31 -3 58 156 c32 86 62 158 67
161 4 3 8 -45 8 -106 0 -103 -2 -112 -20 -117 -16 -4 -20 -14 -20 -49 l0 -44
105 0 105 0 0 44 c0 30 -5 46 -15 50 -22 8 -22 216 0 216 11 0 15 12 15 50 l0
51 -121 -3 -121 -3 -30 -75 c-16 -41 -31 -76 -33 -78 -1 -2 -16 32 -33 75
l-29 78 -109 3 -109 3 0 -206z"/>
<path d="M1180 1080 c0 -38 4 -50 15 -50 12 0 15 -19 15 -110 0 -91 -3 -110
-15 -110 -11 0 -15 -12 -15 -45 l0 -45 80 0 80 0 0 45 c0 33 -4 45 -15 45 -12
0 -15 15 -15 77 l0 76 76 -109 c106 -152 97 -144 171 -144 l63 0 0 159 c0 152
1 159 21 164 17 5 20 12 17 49 l-3 43 -82 3 -83 3 0 -51 c0 -43 3 -50 20 -50
18 0 20 -7 20 -55 0 -30 -3 -55 -7 -55 -5 0 -41 47 -81 105 l-73 105 -95 0
-94 0 0 -50z"/>
<path d="M2230 1080 c0 -38 4 -50 15 -50 12 0 15 -18 15 -105 0 -85 -3 -107
-15 -111 -10 -4 -15 -20 -15 -50 l0 -44 195 0 195 0 0 65 0 65 -55 0 c-49 0
-55 -2 -55 -21 0 -18 -5 -20 -47 -17 -48 3 -48 3 -48 38 0 34 1 35 43 38 43 3
43 3 40 40 -3 36 -4 37 -45 40 -40 3 -43 5 -43 33 0 28 1 29 50 29 38 0 50 -4
50 -15 0 -12 13 -15 55 -15 l55 0 0 65 0 65 -195 0 -195 0 0 -50z"/>
<path d="M2688 1124 c-5 -4 -8 -27 -8 -51 0 -36 3 -43 20 -43 19 0 20 -7 20
-106 0 -97 -2 -106 -20 -111 -16 -4 -20 -14 -20 -49 l0 -44 115 0 115 0 0 45
c0 33 -4 45 -15 45 -11 0 -15 11 -15 40 0 36 3 40 24 40 20 0 32 -15 71 -85
l46 -85 75 0 74 0 0 45 c0 32 -4 45 -14 45 -8 0 -28 22 -44 48 l-29 48 28 32
c33 37 37 77 13 123 -26 51 -68 62 -259 67 -93 2 -173 1 -177 -4z"/>
<path d="M0 310 l0 -220 1590 0 1590 0 0 220 0 220 -1590 0 -1590 0 0 -220z
m450 48 c14 -26 13 -29 -7 -49 l-22 -22 20 -29 c18 -25 18 -28 4 -28 -10 0
-26 11 -37 25 -11 14 -28 25 -39 25 -14 0 -19 -7 -19 -25 0 -16 -6 -25 -15
-25 -12 0 -15 16 -15 80 l0 81 57 -3 c51 -3 59 -6 73 -30z m798 20 c16 -16 15
-34 -4 -53 -13 -13 -14 -19 -4 -28 10 -9 14 -9 17 1 5 13 33 17 33 4 0 -4 -5
-13 -12 -20 -9 -9 -9 -15 0 -24 7 -7 12 -15 12 -18 0 -11 -114 -9 -127 2 -17
14 -16 53 1 67 8 7 12 21 9 31 -3 11 -3 27 1 35 7 18 57 20 74 3z m484 -5 c23
-21 23 -45 -2 -68 -19 -18 -19 -18 1 -46 18 -26 18 -29 4 -29 -10 0 -26 11
-37 25 -11 14 -28 25 -39 25 -14 0 -19 -7 -19 -25 0 -16 -6 -25 -15 -25 -12 0
-15 16 -15 80 l0 80 52 0 c34 0 58 -6 70 -17z"/>
</g>
</svg>
